<?xml version="1.0" encoding="UTF-8" standalone="no"?>
<svg id="svg2" xmlns:rdf="http://www.w3.org/1999/02/22-rdf-syntax-ns#" xmlns="http://www.w3.org/2000/svg" height="1467.9pt" width="1640.2pt" version="1.1" xmlns:cc="http://creativecommons.org/ns#" xmlns:dc="http://purl.org/dc/elements/1.1/" viewBox="0 0 1640.1937 1467.8538">
<g id="g4147" transform="matrix(-.98641 -.16432 -.16432 .98641 3069.6 -537.43)">
<path id="path6" fill="#c1915d" d="m1767.7 909.15c-35.25 2.67-69.58 12.46-102.6 24.7-9.61 4.3-19.27 8.4794-28.98 12.509-52.42 25.39-100.37 59.22-143.96 97.7-38.48 34.3-73.27 72.551-105.32 112.88-6.14 8.12-12.339 16.199-18.659 24.169-13.83 19.36-27.26 39-40.27 58.92-108.22 172.37-176.58 377.69-154.94 582.86 77.28-24.26 149.55-62.821 216.02-108.81 150.08-108.99 264.29-264.67 328.98-438.11 27.61-74.45 46.95-152.4 53-231.71 3.01-44.94 3.9497-90.539-3.2703-135.11z"/>
<path id="path4145" d="m1945.8 873.28c-20.07 3.71-41.17 1.4103-61.6 2.9703-10.74 1-21.54 1.2597-32.23-0.12032-4.61 2.57-2.6797 22.5-6.3297 18.63-1.38 7.48-3.04 14.891-4.5 22.361 25.51 12.46 50.999 25.139 76.039 38.589 35.12 17.36 69.981 35.28 104.81 53.2 5.14 1.63 1.7197 3.0209-1.2203 4.0609 2.84 3.15-1.7706 6.3597-3.2406 9.0297-12.8-3.24-25.419-7.3394-37.889-11.659-30.17-8.35-60.02-17.861-89.95-27.031-12.75-3.31-25.121-7.8594-37.791-11.359-14.887 102.58-16.806 122.99-26 218.53 85.76 30.76 172.68 59.011 258.86 88.861-63.17 4.63-128.53-13.061-190.34-29.791-27.41-6.43-60.011-10.73-84.361 6.55-23.93 17.48-27.619 50.4-26.259 77.82 22.16 14.47 45.711 26.98 68.741 40.12 109.18 62.01 219.84 121.86 323.51 192.95 79.37 56.43 157.72 115.17 226.61 184.3 39.81 42.6 81.46 88.049 97.45 145.52-103.18-99.6-212.52-193.92-333.76-271.17-90.5-59.06-187.36-107.85-287.34-148.7-36.31-14.43-73.309-32.88-113.44-29.67-24.72 2.94-44.491 20-61.261 37.1-26.14 28.48-49.509 59.37-72.859 90.13-18.65 16.07-34.891 37.98-35.341 63.57 0.14 21.8 13.491 40.64 28.691 55.08 105.91 87.96 204.84 189.21 333 245.03 106.14 51.08 218.99 85.911 328.29 129.26-15.63 0.38-32.311-1.0306-48.211-3.3906-117.29-15.86-233.19-45.16-342.1-91.88-121.18-51.48-232.62-125.3-328.01-215.98-27.52-21.32-67.45-39.661-100.85-21.211-44.34 22.77-79.84 58.71-119.83 87.88 83.52 83.47 168.9 165.13 251.69 249.28-71.14-41.33-136.94-91.751-196.56-148.41-27.09-25.54-52.24-55.44-86.83-70.98-75.683 1.6034-187.3 6.2886-96.311 137.43 28.23 50.65 62.88 98.481 106.48 137.21 71.14 65.21 158.66 109.16 248.51 142.5 81.15 30.58 165.35 53.089 250.95 67.039 256.96 41.8 521.64-5.8291 759.82-106.04 63-26.02 131.42-56.561 166.14-118.86 37-69.81 17.68-151.79 2.9703-225.03-16.67-79.69-37.74-158.54-64.6-235.4-77.51-227.95-207.1-438.88-381.56-605.46-76.29-72.72-173.47-116.96-269.18-157.87-29.33-12.62-62.339-12.121-92.809-14.991z" fill="#924221"/>
</g>
</svg>
